<?xml version="1.0" encoding="UTF-8"?>
<svg width="75px" height="53px" viewBox="0 0 75 53" version="1.1" xmlns="http://www.w3.org/2000/svg" xmlns:xlink="http://www.w3.org/1999/xlink">
    <!-- Generator: Sketch 44.1 (41455) - http://www.bohemiancoding.com/sketch -->
    <title>atom / glyphs / logotype-bleu</title>
    <desc>Created with Sketch.</desc>
    <defs>
        <rect id="path-1" x="0" y="5" width="75" height="47"></rect>
    </defs>
    <g id="Symbols" stroke="none" stroke-width="1" fill="none" fill-rule="evenodd">
        <g id="atom-/-glyphs-/-logotype-bleu">
            <g id="logotype-bleu">
                <g id="container" opacity="0">
                    <use fill-opacity="0.2" fill="#0456FD" fill-rule="evenodd" xlink:href="#path-1"></use>
                    <rect stroke="#0456FD" stroke-width="0.5" x="-0.25" y="4.75" width="75.5" height="47.5"></rect>
                </g>
                <path d="M2.01458569,33.6101686 C2.50153089,34.7835473 9.90309783,47.0551332 12.2891293,51.2597403 L14.3342991,51.2597403 L7.8092335,40.0148608 C11.3152389,41.2371303 12.2891293,41.1393487 12.8734635,41.1393487 C19.3011401,41.1393487 24.5601482,35.7124721 24.5601482,29.1122168 C24.5601482,22.4141799 19.3011401,16.9873033 12.8734635,16.9873033 C6.44578695,16.9873033 1.18677886,22.4141799 1.18677886,29.1122168 C1.18677886,30.5300494 1.43025146,31.9967728 2.01458569,33.6101686 Z M12.8734635,18.8315688 C7.61445542,18.8315688 2.93978156,23.476193 2.93978156,28.9519604 C2.93978156,34.5744001 7.37098282,39.1701334 12.8734635,39.1701334 C18.3759442,39.1701334 22.8071455,34.5744001 22.8071455,28.9519604 C22.8071455,23.3784114 18.3759442,18.8315688 12.8734635,18.8315688 Z M55.8220296,16.7292653 L55.8220296,41.272437 L57.7698104,41.272437 L57.7698104,16.7292653 L55.8220296,16.7292653 Z M56.9420035,9.20008511 C57.5750323,9.20008511 58.0619775,8.71117731 58.0619775,8.12448795 C58.0619775,7.4889078 57.5750323,7 56.9420035,7 C56.3576693,7 55.8220296,7.4889078 55.8220296,8.12448795 C55.8220296,8.71117731 56.3576693,9.20008511 56.9420035,9.20008511 Z M73.6929182,16.6314837 C71.4042758,16.8759376 69.3104115,17.6581901 67.6061033,19.2226951 C66.0965732,20.6405277 65.0739883,22.351705 65.0739883,22.351705 L65.0739883,16.6314837 L63.4183746,16.6314837 L63.4183746,41.1746554 L65.0739883,41.1746554 L65.0739883,27.0452199 C65.9504896,22.5961589 69.3104115,18.7826781 73.6929182,18.3915518 L73.6929182,16.6314837 Z" id="pair" fill="#337DEB"></path>
                <g id="pear" transform="translate(42.332968, 23.167945) rotate(20.000000) translate(-42.332968, -23.167945) translate(31.332968, 2.667945)">
                    <path d="M4.08994341,37.1632653 C4.04801752,37.125267 4.00641045,37.0869229 3.96512661,37.0482375 C3.60515654,36.7109242 3.26976108,36.347666 2.96187074,35.9615129 L2.38307112,36.4230056 L2.38307112,37.1632653 L19.3475266,37.1632653 L19.3475266,36.4230056 L18.7687269,35.9615129 C18.4608366,36.347666 18.1254411,36.7109242 17.7654711,37.0482375 C17.7241872,37.0869229 17.6825801,37.1252671 17.6406542,37.1632654 C17.61419,37.1872504 17.5875988,37.2110976 17.5608817,37.2348059 L18.052217,37.7884972 L18.052217,37.0482375 L3.67838066,37.0482375 L3.67838066,37.7884972 L4.16971597,37.2348059 C4.14299883,37.2110976 4.11640761,37.1872504 4.08994341,37.1632653 Z M5.9617082,38.5075282 C7.44957139,39.3375977 9.12476902,39.7792208 10.8652988,39.7792208 C12.6058287,39.7792208 14.2810263,39.3375977 15.7688895,38.5075282 L16.1295459,39.8942486 L5.60105181,39.8942486 L5.9617082,38.5075282 Z M1.89183264,34.3172542 L19.838765,34.3172542 C20.5908376,32.8748004 20.9903379,31.2652389 20.9903379,29.5955473 C20.9903379,26.2804697 19.4051873,23.2339326 16.7821564,21.330697 L16.5657149,21.17365 L16.4996099,20.9145346 C16.4496668,20.7187701 16.3831004,20.5262511 16.3000069,20.3383388 L16.2367697,20.1953304 L16.2367697,17.9558864 C16.2367697,14.989305 13.8318803,12.5844156 10.8652988,12.5844156 C7.8987174,12.5844156 5.49382798,14.989305 5.49382798,17.9558864 L5.49382798,20.1953304 L5.43059075,20.3383388 C5.34840753,20.5241926 5.28201818,20.7164764 5.23204885,20.9131736 L5.16609133,21.172806 L4.94925817,21.3301043 C2.32575518,23.2332848 0.74025974,26.2801119 0.74025974,29.5955473 C0.74025974,31.2652389 1.13976009,32.8748004 1.89183264,34.3172542 Z" id="body" stroke="#337DEB" stroke-width="1.48051948"></path>
                    <g id="leaves" transform="translate(13.806545, 7.068197) rotate(45.000000) translate(-13.806545, -7.068197) translate(8.806545, 2.568197)" fill="#337DEB">
                        <path d="M7.59735509,0.593975128 L8.77963177,4.62742468 L6.0312285,4.62742468 L7.21350518,0.593975128 L7.21350518,0.593975128 C7.24457487,0.487977903 7.35568957,0.427237138 7.46168679,0.458306833 C7.52706517,0.477470413 7.57819151,0.528596751 7.59735509,0.593975128 L7.59735509,0.593975128 Z M7.59735509,8.66087423 C7.57819151,8.72625261 7.52706517,8.77737895 7.46168679,8.79654253 C7.35568957,8.82761222 7.24457487,8.76687146 7.21350518,8.66087423 L6.0312285,4.62742468 L8.77963177,4.62742468 L7.59735509,8.66087423 Z" id="Triangle-Copy" transform="translate(7.405430, 3.622065) rotate(20.000000) translate(-7.405430, -3.622065) "></path>
                        <path d="M3.12305091,4.33607138 L3.80612595,6.66644698 L2.05612595,6.66644698 L2.739201,4.33607138 L2.739201,4.33607138 C2.77027069,4.23007416 2.88138539,4.16933339 2.98738261,4.20040309 C3.05276099,4.21956667 3.10388733,4.27069301 3.12305091,4.33607138 L3.12305091,4.33607138 Z M3.12305091,8.99682259 C3.10388733,9.06220096 3.05276099,9.1133273 2.98738261,9.13249088 C2.88138539,9.16356058 2.77027069,9.10281981 2.739201,8.99682259 L2.739201,8.99682259 L2.05612595,6.66644698 L3.80612595,6.66644698 L3.12305091,8.99682259 Z" id="Triangle-Copy-2" transform="translate(2.931126, 6.026301) rotate(-40.000000) translate(-2.931126, -6.026301) "></path>
                    </g>
                </g>
            </g>
        </g>
    </g>
</svg>